Coordinates
version=1
nRows=22
nColumns=24
inDegrees=yes

Units are S.I. units (second, meters, Newtons, ...)
Angles are in degrees.

endheader
time	pelvis_tilt	pelvis_list	pelvis_rotation	pelvis_tx	pelvis_ty	pelvis_tz	hip_flexion_r	hip_adduction_r	hip_rotation_r	knee_angle_r	ankle_angle_r	subtalar_angle_r	mtp_angle_r	hip_flexion_l	hip_adduction_l	hip_rotation_l	knee_angle_l	ankle_angle_l	subtalar_angle_l	mtp_angle_l	lumbar_extension	lumbar_bending	lumbar_rotation
      1.50450000	     -0.27979776	     -4.28480496	     -8.68621084	      0.95329143	      0.99014499	      0.30529068	    -20.65081410	      6.49819993	     11.37691905	    -11.06630863	     11.70543571	     -4.46964954	      6.63262676	     28.32472463	     -7.13762715	     -4.05470717	      0.25303973	     13.05809479	     -9.65347843	     -3.08793301	     -2.59659650	      1.40864762	     10.47983936
      1.50866667	     -0.27095427	     -4.19790227	     -8.78940658	      0.95945986	      0.98942374	      0.30479169	    -20.90637667	      6.25501455	     11.16578271	    -11.22034519	     11.57006957	     -4.06916609	      7.36476281	     28.29749581	     -7.02039067	     -3.83533745	     -0.28436595	     13.21672051	     -9.94804988	     -2.93930100	     -2.50380933	      1.34246663	     10.75477713
      1.51283333	     -0.29778794	     -4.10352594	     -8.87838612	      0.96573777	      0.98865244	      0.30431735	    -21.15781529	      6.02676065	     11.07961301	    -11.30688740	     11.27155606	     -3.97590629	      7.43488938	     28.30930072	     -6.89590670	     -3.66935654	     -0.83875103	     13.42934805	    -10.08225303	     -2.91284461	     -2.33939887	      1.25510886	     10.76306834
      1.51700000	     -0.30170507	     -4.01118367	     -8.95833872	      0.97204961	      0.98791054	      0.30380406	    -21.41394164	      5.79592597	     10.93203182	    -11.43175075	     10.98666318	     -3.81233650	      7.54740163	     28.28275952	     -6.76245436	     -3.49629584	     -1.37606609	     13.56420000	    -10.21872655	     -2.87202284	     -2.19138498	      1.16978178	     10.83925270
      1.52116667	     -0.31362112	     -3.90659958	     -9.04654858	      0.97840545	      0.98716726	      0.30324804	    -21.63602504	      5.54241657	     10.72792981	    -11.59458856	     10.67401686	     -3.52910725	     11.42748819	     28.23473261	     -6.61015512	     -3.24131990	     -1.86223425	     13.53037742	    -10.59587002	     -1.57758242	     -2.06776084	      1.09140135	     10.95699785
      1.52533333	     -0.34188042	     -3.78314886	     -9.13984478	      0.98484385	      0.98641382	      0.30271552	    -21.83951130	      5.27930146	     10.57451617	    -11.76603680	     10.36215144	     -3.38905649	     11.43765738	     28.21382987	     -6.44893401	     -3.16917022	     -2.37398703	     13.55937199	    -10.67503970	     -1.56293308	     -1.87665641	      0.98857100	     11.03934428
      1.52950000	     -0.36297229	     -3.65116237	     -9.21294481	      0.99132283	      0.98566720	      0.30213277	    -22.02742613	      5.00732003	     10.32927313	    -11.98473573	     10.14998522	     -3.05310468	     11.52914320	     28.17060165	     -6.26370328	     -3.03848410	     -2.85261456	     13.45609817	    -10.83647864	     -1.49625697	     -1.68117906	      0.86683358	     11.25895701
      1.53366667	     -0.39010935	     -3.52115396	     -9.31286567	      0.99784316	      0.98494848	      0.30158350	    -22.19624816	      4.73480579	     10.14627515	    -12.22293279	      9.79518643	     -2.87739412	     11.58251188	     28.11850495	     -6.09333637	     -2.96511674	     -3.31429567	     13.34797413	    -10.97138082	     -1.45114740	     -1.48032848	      0.75549094	     11.32187029
      1.53783333	     -0.41723859	     -3.36718106	     -9.40077225	      1.00438529	      0.98422658	      0.30096481	    -22.32544623	      4.43376293	      9.86049360	    -12.53713899	      9.59033758	     -2.48377921	     11.83732351	     28.04771127	     -5.88258388	     -2.80484887	     -3.71870820	     13.04598068	    -11.32677313	     -1.26647840	     -1.29590662	      0.62864314	     11.51874462
      1.54200000	     -0.45668636	     -3.21879151	     -9.46585209	      1.01097772	      0.98351198	      0.30035450	    -22.47240241	      4.16059943	      9.68047536	    -12.77073941	      9.10840285	     -2.41565477	     14.12666727	     27.98401211	     -5.67149633	     -2.63769231	     -4.09769631	     12.61174114	    -11.70245533	      0.42291295	     -1.07245238	      0.50498425	     11.48004012
      1.54616667	     -0.48508346	     -3.05066775	     -9.52651135	      1.01758331	      0.98281300	      0.29969688	    -22.57107421	      3.85938066	      9.35462034	    -13.13039496	      8.81741851	     -2.07664483	     14.21424263	     27.94216653	     -5.44355001	     -2.63389351	     -4.53780067	     12.25939276	    -11.76879051	      0.48559797	     -0.86338598	      0.35145059	     11.65933892
      1.55033333	     -0.52671978	     -2.86565913	     -9.58831050	      1.02423749	      0.98212561	      0.29904727	    -22.65554749	      3.54867402	      9.09123492	    -13.48013754	      8.45756028	     -1.83740577	     14.34042023	     27.90526565	     -5.19868235	     -2.59551681	     -4.95332834	     11.79090287	    -11.93687142	      0.57218044	     -0.62617731	      0.16386306	     11.74247569
      1.55450000	     -0.56435434	     -2.68520858	     -9.64154912	      1.03088020	      0.98147989	      0.29833542	    -22.70593057	      3.23967462	      8.75019480	    -13.89638003	      8.07152626	     -1.54277202	     14.63369187	     27.84857780	     -4.94669957	     -2.49365019	     -5.31727498	     11.16658969	    -12.26309161	      0.77279751	     -0.39888525	      0.03710184	     11.83020278
      1.55866667	     -0.61162515	     -2.48650046	     -9.67745839	      1.03752489	      0.98083540	      0.29762151	    -22.72997765	      2.92698191	      8.41420094	    -14.33434658	      7.65525663	     -1.29769362	     15.04874480	     27.82661125	     -4.67532147	     -2.41608830	     -5.71731918	     10.51024726	    -12.53673795	      1.05817559	     -0.15645006	     -0.14464300	     11.88368886
      1.56283333	     -0.63235981	     -2.26743684	     -9.68666440	      1.04422770	      0.98026377	      0.29689813	    -22.79713015	      2.60797526	      8.12129899	    -14.72313573	      7.06435297	     -1.29601178	     17.48863270	     27.78205726	     -4.37232817	     -2.35880649	     -6.11200716	      9.74496396	    -12.82176878	      2.68041218	      0.05888848	     -0.37271737	     11.85901088
      1.56700000	     -0.69874832	     -2.02627903	     -9.70594608	      1.05091809	      0.97965598	      0.29612683	    -22.73909250	      2.25842580	      7.69530823	    -15.26390252	      6.64503171	     -0.96652112	     17.57799052	     27.83267731	     -4.06653355	     -2.45781426	     -6.60806835	      9.16206073	    -12.81533098	      2.72591893	      0.34563362	     -0.59757967	     11.92319928
      1.57116667	     -0.74784045	     -1.78356302	     -9.70185204	      1.05761357	      0.97912073	      0.29532367	    -22.69171301	      1.91544990	      7.27005106	    -15.80816290	      6.14659575	     -0.67758127	     17.81565673	     27.85318631	     -3.73990008	     -2.42155852	     -7.06335779	      8.41832389	    -13.02480323	      2.84952599	      0.59981653	     -0.82675370	     11.95850650
      1.57533333	     -0.78595865	     -1.51373785	     -9.68394063	      1.06429899	      0.97862818	      0.29449533	    -22.62691754	      1.54946727	      6.81208819	    -16.39458551	      5.62692808	     -0.43386629	     18.14874818	     27.89252360	     -3.38346371	     -2.42555862	     -7.57012363	      7.67966779	    -13.20724123	      3.01523975	      0.84466424	     -1.09621939	     11.96108099
      1.57950000	     -0.79704436	     -1.23983281	     -9.63507880	      1.07098340	      0.97822144	      0.29365722	    -22.59449958	      1.19689969	      6.37976404	    -16.95891745	      4.96413162	     -0.38809190	     18.21167248	     27.94571390	     -3.02057226	     -2.52850498	     -8.17485825	      7.08633646	    -13.14159925	      3.04232000	      1.06945817	     -1.37982468	     11.94522893
      1.58366667	     -0.78167521	     -0.91373387	     -9.56398950	      1.07766462	      0.97787870	      0.29273189	    -22.53613463	      0.78104843	      5.81322298	    -17.61205524	      4.35251991	     -0.19370432	     20.20764506	     27.93682246	     -2.56711754	     -2.38162907	     -8.67481638	      6.23200352	    -13.61344896	      3.94664613	      1.23974513	     -1.74320202	     11.91396415
      1.58783333	     -0.80307278	     -0.61954483	     -9.49615579	      1.08433373	      0.97754672	      0.29183697	    -22.43112053	      0.40977145	      5.30673989	    -18.27380897	      3.63433664	     -0.04887114	     20.25472595	     28.05769595	     -2.18801492	     -2.55130995	     -9.40121189	      5.75091687	    -13.45797040	      3.95938687	      1.48689515	     -2.04503860	     11.88805442
      1.59200000	     -0.83258524	     -0.27767839	     -9.41483431	      1.09096352	      0.97720701	      0.29087170	    -22.24812540	     -0.01981273	      4.67512280	    -19.06809703	      3.09459878	      0.30344373	     20.47458527	     28.21345079	     -1.75430284	     -2.69281391	    -10.17302102	      5.30136923	    -13.36456978	      4.02254010	      1.71004581	     -2.41590550	     11.81033809
